<svg width="26" height="24" viewBox="0 0 26 24" fill="none" xmlns="http://www.w3.org/2000/svg">
<path d="M11.3846 10L15.5604 14M15.5604 10L11.3846 14M4.0769 12C4.0769 13.1819 4.31993 14.3522 4.7921 15.4442C5.26428 16.5361 5.95635 17.5282 6.82881 18.364C7.70128 19.1997 8.73704 19.8626 9.87697 20.3149C11.0169 20.7672 12.2387 21 13.4725 21C14.7064 21 15.9281 20.7672 17.0681 20.3149C18.208 19.8626 19.2437 19.1997 20.1162 18.364C20.9887 17.5282 21.6807 16.5361 22.1529 15.4442C22.6251 14.3522 22.8681 13.1819 22.8681 12C22.8681 10.8181 22.6251 9.64778 22.1529 8.55585C21.6807 7.46392 20.9887 6.47177 20.1162 5.63604C19.2437 4.80031 18.208 4.13738 17.0681 3.68508C15.9281 3.23279 14.7064 3 13.4725 3C12.2387 3 11.0169 3.23279 9.87697 3.68508C8.73704 4.13738 7.70128 4.80031 6.82881 5.63604C5.95635 6.47177 5.26428 7.46392 4.7921 8.55585C4.31993 9.64778 4.0769 10.8181 4.0769 12Z" stroke="#454545" stroke-width="2" stroke-linecap="round" stroke-linejoin="round"/>
</svg>
