<svg width="65" height="64" viewBox="0 0 65 64" fill="none" xmlns="http://www.w3.org/2000/svg">
<g opacity="0.8" clip-path="url(#clip0_1_113)">
<path d="M53.8333 48C56.7667 48 59.14 45.6 59.14 42.6667L59.1667 16C59.1667 14.5855 58.6048 13.2289 57.6046 12.2288C56.6044 11.2286 55.2478 10.6667 53.8333 10.6667H11.1667C8.20667 10.6667 5.83333 13.04 5.83333 16V42.6667C5.83333 44.0811 6.39524 45.4377 7.39543 46.4379C8.39562 47.4381 9.75218 48 11.1667 48H0.5V53.3333H64.5V48H53.8333ZM11.1667 42.6667V16H53.8333V42.6933L11.1667 42.6667ZM24.7587 26.5413C24.7587 23.8027 26.988 21.5707 29.7293 21.5707C32.468 21.5707 34.7 23.8027 34.7 26.5413C34.6979 27.859 34.1735 29.1221 33.2418 30.0538C32.3101 30.9855 31.047 31.5099 29.7293 31.512C28.4117 31.5099 27.1486 30.9855 26.2169 30.0538C25.2852 29.1221 24.7608 27.859 24.7587 26.5413ZM43.5107 37.8373L36.892 31.2187C37.8076 29.8304 38.2961 28.2043 38.2973 26.5413C38.2952 24.2691 37.3915 22.0907 35.7845 20.4842C34.1776 18.8778 31.9989 17.9747 29.7267 17.9733C27.4547 17.9754 25.2763 18.8787 23.6696 20.485C22.0628 22.0913 21.1588 24.2694 21.156 26.5413C21.1588 28.8135 22.0627 30.9919 23.6694 32.5986C25.2761 34.2053 27.4545 35.1092 29.7267 35.112C31.3578 35.1088 32.9536 34.6367 34.324 33.752L40.9613 40.384L43.5107 37.8373Z" fill="#454545"/>
</g>
<defs>
<clipPath id="clip0_1_113">
<rect width="64" height="64" fill="white" transform="translate(0.5)"/>
</clipPath>
</defs>
</svg>
