<svg width="177" height="64" viewBox="0 0 177 64" fill="none" xmlns="http://www.w3.org/2000/svg">
<path d="M60 52H56V24C56 22.9391 55.5786 21.9217 54.8284 21.1716C54.0783 20.4214 53.0609 20 52 20H36V8.00001C36.0005 7.27566 35.8042 6.56479 35.4323 5.94326C35.0603 5.32172 34.5265 4.81286 33.8879 4.47098C33.2494 4.1291 32.5299 3.96704 31.8064 4.00209C31.0829 4.03715 30.3825 4.268 29.78 4.67001L9.78 18C9.23135 18.3661 8.78173 18.8621 8.47117 19.444C8.16061 20.0258 7.99875 20.6755 8 21.335V52H4C3.46957 52 2.96086 52.2107 2.58579 52.5858C2.21071 52.9609 2 53.4696 2 54C2 54.5304 2.21071 55.0391 2.58579 55.4142C2.96086 55.7893 3.46957 56 4 56H60C60.5304 56 61.0391 55.7893 61.4142 55.4142C61.7893 55.0391 62 54.5304 62 54C62 53.4696 61.7893 52.9609 61.4142 52.5858C61.0391 52.2107 60.5304 52 60 52ZM52 24V52H36V24H52ZM12 21.335L32 8.00001V52H12V21.335ZM28 28V32C28 32.5304 27.7893 33.0391 27.4142 33.4142C27.0391 33.7893 26.5304 34 26 34C25.4696 34 24.9609 33.7893 24.5858 33.4142C24.2107 33.0391 24 32.5304 24 32V28C24 27.4696 24.2107 26.9609 24.5858 26.5858C24.9609 26.2107 25.4696 26 26 26C26.5304 26 27.0391 26.2107 27.4142 26.5858C27.7893 26.9609 28 27.4696 28 28ZM20 28V32C20 32.5304 19.7893 33.0391 19.4142 33.4142C19.0391 33.7893 18.5304 34 18 34C17.4696 34 16.9609 33.7893 16.5858 33.4142C16.2107 33.0391 16 32.5304 16 32V28C16 27.4696 16.2107 26.9609 16.5858 26.5858C16.9609 26.2107 17.4696 26 18 26C18.5304 26 19.0391 26.2107 19.4142 26.5858C19.7893 26.9609 20 27.4696 20 28ZM20 42V46C20 46.5304 19.7893 47.0391 19.4142 47.4142C19.0391 47.7893 18.5304 48 18 48C17.4696 48 16.9609 47.7893 16.5858 47.4142C16.2107 47.0391 16 46.5304 16 46V42C16 41.4696 16.2107 40.9609 16.5858 40.5858C16.9609 40.2107 17.4696 40 18 40C18.5304 40 19.0391 40.2107 19.4142 40.5858C19.7893 40.9609 20 41.4696 20 42ZM28 42V46C28 46.5304 27.7893 47.0391 27.4142 47.4142C27.0391 47.7893 26.5304 48 26 48C25.4696 48 24.9609 47.7893 24.5858 47.4142C24.2107 47.0391 24 46.5304 24 46V42C24 41.4696 24.2107 40.9609 24.5858 40.5858C24.9609 40.2107 25.4696 40 26 40C26.5304 40 27.0391 40.2107 27.4142 40.5858C27.7893 40.9609 28 41.4696 28 42Z" fill="#FF6000"/>
<path d="M73.7216 41V23.5455H80.267C81.608 23.5455 82.733 23.7955 83.642 24.2955C84.5568 24.7955 85.2472 25.483 85.7131 26.358C86.1847 27.2273 86.4205 28.2159 86.4205 29.3239C86.4205 30.4432 86.1847 31.4375 85.7131 32.3068C85.2415 33.1761 84.5455 33.8608 83.625 34.3608C82.7045 34.8551 81.571 35.1023 80.2244 35.1023H75.8864V32.5028H79.7983C80.5824 32.5028 81.2244 32.3665 81.7244 32.0938C82.2244 31.821 82.5938 31.446 82.8324 30.9688C83.0767 30.4915 83.1989 29.9432 83.1989 29.3239C83.1989 28.7045 83.0767 28.1591 82.8324 27.6875C82.5938 27.2159 82.2216 26.8494 81.7159 26.5881C81.2159 26.321 80.571 26.1875 79.7812 26.1875H76.8835V41H73.7216ZM89.0305 41V27.9091H92.022V30.0909H92.1584C92.397 29.3352 92.8061 28.7528 93.3857 28.3438C93.9709 27.929 94.6385 27.7216 95.3885 27.7216C95.5589 27.7216 95.7493 27.7301 95.9595 27.7472C96.1754 27.7585 96.3544 27.7784 96.4964 27.8068V30.6449C96.3658 30.5994 96.1584 30.5597 95.8743 30.5256C95.5959 30.4858 95.326 30.4659 95.0646 30.4659C94.5021 30.4659 93.9964 30.5881 93.5476 30.8324C93.1044 31.071 92.755 31.4034 92.4993 31.8295C92.2436 32.2557 92.1158 32.7472 92.1158 33.304V41H89.0305ZM103.717 41.2557C102.439 41.2557 101.331 40.9744 100.393 40.4119C99.456 39.8494 98.7287 39.0625 98.2116 38.0511C97.7003 37.0398 97.4446 35.858 97.4446 34.5057C97.4446 33.1534 97.7003 31.9687 98.2116 30.9517C98.7287 29.9347 99.456 29.1449 100.393 28.5824C101.331 28.0199 102.439 27.7386 103.717 27.7386C104.996 27.7386 106.104 28.0199 107.041 28.5824C107.979 29.1449 108.703 29.9347 109.214 30.9517C109.732 31.9687 109.99 33.1534 109.99 34.5057C109.99 35.858 109.732 37.0398 109.214 38.0511C108.703 39.0625 107.979 39.8494 107.041 40.4119C106.104 40.9744 104.996 41.2557 103.717 41.2557ZM103.734 38.7841C104.428 38.7841 105.007 38.5937 105.473 38.2131C105.939 37.8267 106.286 37.3097 106.513 36.6619C106.746 36.0142 106.862 35.2926 106.862 34.4972C106.862 33.696 106.746 32.9716 106.513 32.3239C106.286 31.6705 105.939 31.1506 105.473 30.7642C105.007 30.3778 104.428 30.1847 103.734 30.1847C103.024 30.1847 102.433 30.3778 101.962 30.7642C101.496 31.1506 101.146 31.6705 100.913 32.3239C100.686 32.9716 100.572 33.696 100.572 34.4972C100.572 35.2926 100.686 36.0142 100.913 36.6619C101.146 37.3097 101.496 37.8267 101.962 38.2131C102.433 38.5937 103.024 38.7841 103.734 38.7841ZM112.609 45.9091V27.9091H115.643V30.0739H115.822C115.981 29.7557 116.205 29.4176 116.495 29.0597C116.785 28.696 117.177 28.3864 117.671 28.1307C118.165 27.8693 118.796 27.7386 119.563 27.7386C120.575 27.7386 121.487 27.9972 122.299 28.5142C123.117 29.0256 123.765 29.7841 124.242 30.7898C124.725 31.7898 124.967 33.017 124.967 34.4716C124.967 35.9091 124.731 37.1307 124.259 38.1364C123.788 39.142 123.146 39.9091 122.333 40.4375C121.521 40.9659 120.6 41.2301 119.572 41.2301C118.822 41.2301 118.2 41.1051 117.705 40.8551C117.211 40.6051 116.813 40.304 116.512 39.9517C116.217 39.5937 115.987 39.2557 115.822 38.9375H115.694V45.9091H112.609ZM115.634 34.4545C115.634 35.3011 115.754 36.0426 115.992 36.679C116.237 37.3153 116.586 37.8125 117.04 38.1705C117.501 38.5227 118.058 38.6989 118.711 38.6989C119.393 38.6989 119.964 38.517 120.424 38.1534C120.884 37.7841 121.231 37.2812 121.464 36.6449C121.702 36.0028 121.822 35.2727 121.822 34.4545C121.822 33.642 121.705 32.9205 121.472 32.2898C121.239 31.6591 120.893 31.1648 120.433 30.8068C119.972 30.4489 119.398 30.2699 118.711 30.2699C118.052 30.2699 117.492 30.4432 117.032 30.7898C116.572 31.1364 116.222 31.6222 115.984 32.2472C115.751 32.8722 115.634 33.608 115.634 34.4545Z" fill="#454545"/>
<path d="M127.745 41V23.5455H138.927V26.196H130.907V30.9347H138.16V33.5852H130.907V41H127.745ZM141.671 41V27.9091H144.756V41H141.671ZM143.222 26.0511C142.734 26.0511 142.313 25.8892 141.961 25.5653C141.609 25.2358 141.433 24.8409 141.433 24.3807C141.433 23.9148 141.609 23.5199 141.961 23.196C142.313 22.8665 142.734 22.7017 143.222 22.7017C143.717 22.7017 144.137 22.8665 144.484 23.196C144.836 23.5199 145.012 23.9148 145.012 24.3807C145.012 24.8409 144.836 25.2358 144.484 25.5653C144.137 25.8892 143.717 26.0511 143.222 26.0511ZM151.014 33.3295V41H147.929V27.9091H150.878V30.1335H151.031C151.332 29.4006 151.813 28.8182 152.472 28.3864C153.136 27.9545 153.957 27.7386 154.935 27.7386C155.838 27.7386 156.625 27.9318 157.295 28.3182C157.972 28.7045 158.494 29.2642 158.864 29.9972C159.239 30.7301 159.423 31.6193 159.418 32.6648V41H156.332V33.142C156.332 32.267 156.105 31.5824 155.651 31.0881C155.202 30.5937 154.58 30.3466 153.784 30.3466C153.244 30.3466 152.764 30.4659 152.344 30.7045C151.929 30.9375 151.602 31.2756 151.364 31.7188C151.131 32.1619 151.014 32.6989 151.014 33.3295ZM167.412 41.2301C166.384 41.2301 165.463 40.9659 164.651 40.4375C163.838 39.9091 163.196 39.142 162.724 38.1364C162.253 37.1307 162.017 35.9091 162.017 34.4716C162.017 33.017 162.256 31.7898 162.733 30.7898C163.216 29.7841 163.866 29.0256 164.685 28.5142C165.503 27.9972 166.415 27.7386 167.42 27.7386C168.188 27.7386 168.818 27.8693 169.312 28.1307C169.807 28.3864 170.199 28.696 170.489 29.0597C170.778 29.4176 171.003 29.7557 171.162 30.0739H171.29V23.5455H174.384V41H171.349V38.9375H171.162C171.003 39.2557 170.773 39.5937 170.472 39.9517C170.17 40.304 169.773 40.6051 169.278 40.8551C168.784 41.1051 168.162 41.2301 167.412 41.2301ZM168.273 38.6989C168.926 38.6989 169.483 38.5227 169.943 38.1705C170.403 37.8125 170.753 37.3153 170.991 36.679C171.23 36.0426 171.349 35.3011 171.349 34.4545C171.349 33.608 171.23 32.8722 170.991 32.2472C170.759 31.6222 170.412 31.1364 169.952 30.7898C169.497 30.4432 168.938 30.2699 168.273 30.2699C167.585 30.2699 167.011 30.4489 166.551 30.8068C166.091 31.1648 165.744 31.6591 165.511 32.2898C165.278 32.9205 165.162 33.642 165.162 34.4545C165.162 35.2727 165.278 36.0028 165.511 36.6449C165.75 37.2812 166.099 37.7841 166.56 38.1534C167.026 38.517 167.597 38.6989 168.273 38.6989Z" fill="#FF6000"/>
</svg>
